<svg xmlns="http://www.w3.org/2000/svg" xmlns:xlink="http://www.w3.org/1999/xlink" width="300" zoomAndPan="magnify" viewBox="0 0 224.87999 225" height="300" preserveAspectRatio="xMidYMid meet" version="1.0"><defs><clipPath id="61c8ce035c"><path d="M 0 0.0585938 L 224.761719 0.0585938 L 224.761719 224.9375 L 0 224.9375 Z M 0 0.0585938 " clip-rule="nonzero"/></clipPath></defs><g clip-path="url(#61c8ce035c)"><path fill="#ffffff" d="M 0 0.0585938 L 224.878906 0.0585938 L 224.878906 224.941406 L 0 224.941406 Z M 0 0.0585938 " fill-opacity="1" fill-rule="nonzero"/><path fill="#ffffff" d="M 0 0.0585938 L 224.878906 0.0585938 L 224.878906 224.941406 L 0 224.941406 Z M 0 0.0585938 " fill-opacity="1" fill-rule="nonzero"/></g><path stroke-linecap="round" transform="matrix(1.342297, 0, 0, 1.342231, -189.374653, -55.944244)" fill="none" stroke-linejoin="round" d="M 296.800378 100.700222 L 296.800378 55.89959 C 296.800378 53.699429 294.999011 51.900885 292.798958 51.900885 L 250.299507 51.900885 " stroke="#000000" stroke-width="5" stroke-opacity="1" stroke-miterlimit="4"/><path stroke-linecap="round" transform="matrix(1.342297, 0, 0, 1.342231, -189.374653, -55.944244)" fill="none" stroke-linejoin="round" d="M 200.399611 51.900885 L 156.800133 51.900885 C 154.600079 51.900885 152.798712 53.699429 152.798712 55.89959 L 152.798712 100.700222 " stroke="#000000" stroke-width="5" stroke-opacity="1" stroke-miterlimit="4"/><path stroke-linecap="round" transform="matrix(1.342297, 0, 0, 1.342231, -189.374653, -55.944244)" fill="none" stroke-linejoin="round" d="M 152.798712 150.59964 L 152.798712 192.001081 C 152.798712 194.201242 154.600079 195.999787 156.800133 195.999787 L 200.399611 195.999787 " stroke="#000000" stroke-width="5" stroke-opacity="1" stroke-miterlimit="4"/><path stroke-linecap="round" transform="matrix(1.342297, 0, 0, 1.342231, -189.374653, -55.944244)" fill="none" stroke-linejoin="round" d="M 250.299507 195.999787 L 292.798958 195.999787 C 294.999011 195.999787 296.800378 194.201242 296.800378 192.001081 L 296.800378 150.59964 " stroke="#000000" stroke-width="5" stroke-opacity="1" stroke-miterlimit="4"/><path stroke-linecap="round" transform="matrix(1.342297, 0, 0, 1.342231, -189.374653, -55.944244)" fill="none" stroke-linejoin="round" d="M 253.500643 103.20014 C 253.500643 104.131425 253.454081 105.05689 253.363867 105.982354 C 253.270743 106.910729 253.136878 107.827463 252.95354 108.741286 C 252.773112 109.6522 252.546123 110.554382 252.278391 111.444923 C 252.00775 112.335465 251.693456 113.208545 251.338421 114.067073 C 250.983386 114.928512 250.584699 115.766668 250.14527 116.587363 C 249.708752 117.408058 249.231491 118.205471 248.713489 118.979602 C 248.198397 119.750822 247.642564 120.49876 247.054719 121.217596 C 246.463963 121.936432 245.838287 122.623254 245.180599 123.280975 C 244.522911 123.938695 243.836121 124.564402 243.117321 125.152275 C 242.39852 125.743059 241.650618 126.29601 240.879435 126.814037 C 240.105342 127.329154 239.307968 127.809348 238.487313 128.245888 C 237.666659 128.685338 236.828543 129.081134 235.967146 129.439097 C 235.10866 129.794149 234.232712 130.108458 233.345124 130.376203 C 232.454626 130.646857 231.552488 130.873858 230.641619 131.054295 C 229.72784 131.234731 228.808241 131.371514 227.882822 131.464642 C 226.957402 131.55486 226.029073 131.601425 225.100743 131.601425 C 224.169503 131.601425 223.241174 131.55486 222.315754 131.464642 C 221.390335 131.371514 220.470736 131.234731 219.559867 131.054295 C 218.646088 130.873858 217.74686 130.646857 216.856362 130.376203 C 215.965864 130.108458 215.089917 129.794149 214.23143 129.439097 C 213.372943 129.081134 212.531918 128.685338 211.711263 128.245888 C 210.890608 127.809348 210.096144 127.329154 209.322051 126.814037 C 208.547958 126.29601 207.802966 125.743059 207.084165 125.152275 C 206.365365 124.564402 205.675665 123.938695 205.017977 123.280975 C 204.360289 122.623254 203.737523 121.936432 203.146768 121.217596 C 202.556012 120.49876 202.003089 119.750822 201.485087 118.979602 C 200.969995 118.205471 200.492735 117.408058 200.053306 116.587363 C 199.613877 115.766668 199.2181 114.928512 198.863065 114.067073 C 198.50512 113.208545 198.193737 112.335465 197.923095 111.444923 C 197.652454 110.554382 197.428374 109.6522 197.245036 108.741286 C 197.064608 107.827463 196.927833 106.910729 196.837619 105.982354 C 196.744495 105.05689 196.700843 104.131425 196.700843 103.20014 C 196.700843 102.268855 196.744495 101.343391 196.837619 100.415016 C 196.927833 99.489551 197.064608 98.572818 197.245036 97.658994 C 197.428374 96.748081 197.652454 95.845899 197.923095 94.955357 C 198.193737 94.064816 198.50512 93.191736 198.863065 92.333208 C 199.2181 91.471769 199.613877 90.633613 200.053306 89.812918 C 200.492735 88.992223 200.969995 88.19481 201.485087 87.420679 C 202.003089 86.649459 202.556012 85.90152 203.146768 85.182685 C 203.737523 84.463849 204.360289 83.777026 205.017977 83.119306 C 205.675665 82.461586 206.365365 81.835879 207.084165 81.245095 C 207.802966 80.657221 208.547958 80.104271 209.322051 79.586243 C 210.096144 79.068216 210.890608 78.590933 211.711263 78.154393 C 212.531918 77.714943 213.372943 77.319146 214.23143 76.961184 C 215.089917 76.606131 215.965864 76.291823 216.856362 76.024078 C 217.74686 75.753423 218.646088 75.526423 219.559867 75.345986 C 220.470736 75.16555 221.390335 75.028767 222.315754 74.935639 C 223.241174 74.84542 224.169503 74.798856 225.100743 74.798856 C 226.029073 74.798856 226.957402 74.84542 227.882822 74.935639 C 228.808241 75.028767 229.72784 75.16555 230.641619 75.345986 C 231.552488 75.526423 232.454626 75.753423 233.345124 76.024078 C 234.232712 76.291823 235.10866 76.606131 235.967146 76.961184 C 236.828543 77.319146 237.666659 77.714943 238.487313 78.154393 C 239.307968 78.590933 240.105342 79.068216 240.879435 79.586243 C 241.650618 80.104271 242.39852 80.657221 243.117321 81.245095 C 243.836121 81.835879 244.522911 82.461586 245.180599 83.119306 C 245.838287 83.777026 246.463963 84.463849 247.054719 85.182685 C 247.642564 85.90152 248.198397 86.649459 248.713489 87.420679 C 249.231491 88.19481 249.708752 88.992223 250.14527 89.812918 C 250.584699 90.633613 250.983386 91.471769 251.338421 92.333208 C 251.693456 93.191736 252.00775 94.064816 252.278391 94.955357 C 252.546123 95.845899 252.773112 96.748081 252.95354 97.658994 C 253.136878 98.572818 253.270743 99.489551 253.363867 100.415016 C 253.454081 101.343391 253.500643 102.268855 253.500643 103.20014 Z M 253.500643 103.20014 " stroke="#000000" stroke-width="5" stroke-opacity="1" stroke-miterlimit="4"/><path stroke-linecap="round" transform="matrix(1.342297, 0, 0, 1.342231, -189.374653, -55.944244)" fill="none" stroke-linejoin="round" d="M 184.19895 186.000113 L 184.19895 153.800932 C 184.19895 151.600771 186.000317 149.799317 188.200371 149.799317 L 264.099315 149.799317 C 266.299369 149.799317 268.100735 151.600771 268.100735 153.800932 L 268.100735 186.000113 " stroke="#000000" stroke-width="5" stroke-opacity="1" stroke-miterlimit="4"/></svg>