<?xml version="1.0" encoding="utf-8"?>
<svg width="800px" height="800px" viewBox="0 0 24 24" fill="none" xmlns="http://www.w3.org/2000/svg">
<path d="M3 3C3.41421 3 3.75 3.33579 3.75 3.75V18.75C3.75 19.4404 4.30964 20 5 20H20.25C20.6642 20 21 20.3358 21 20.75C21 21.1642 20.6642 21.5 20.25 21.5H5C3.48122 21.5 2.25 20.2688 2.25 18.75V3.75C2.25 3.33579 2.58579 3 3 3Z" fill="#000000"/>
<path d="M7.5 13.25C7.5 12.8358 7.16421 12.5 6.75 12.5C6.33579 12.5 6 12.8358 6 13.25V17.25C6 17.6642 6.33579 18 6.75 18C7.16421 18 7.5 17.6642 7.5 17.25V13.25Z" fill="#000000"/>
<path d="M11.25 9.5C11.6642 9.5 12 9.83579 12 10.25V17.25C12 17.6642 11.6642 18 11.25 18C10.8358 18 10.5 17.6642 10.5 17.25V10.25C10.5 9.83579 10.8358 9.5 11.25 9.5Z" fill="#000000"/>
<path d="M16.5 7.25C16.5 6.83579 16.1642 6.5 15.75 6.5C15.3358 6.5 15 6.83579 15 7.25V17.25C15 17.6642 15.3358 18 15.75 18C16.1642 18 16.5 17.6642 16.5 17.25V7.25Z" fill="#000000"/>
<path d="M20.25 10.5C20.6642 10.5 21 10.8358 21 11.25V17.25C21 17.6642 20.6642 18 20.25 18C19.8358 18 19.5 17.6642 19.5 17.25V11.25C19.5 10.8358 19.8358 10.5 20.25 10.5Z" fill="#000000"/>
</svg>
