<svg xmlns="http://www.w3.org/2000/svg" width="24" height="24" viewBox="0 0 19 19" fill="currentColor">
  <path d="M14.546,6.201a0.554,0.554 0,0 1,-0.554 0.554h-1.79a2.22,2.22 0,0 1,-4.298 0H1.008a0.554,0.554 0,0 1,0 -1.108h6.896a2.22,2.22 0,0 1,4.299 0h1.789a0.554,0.554 0,0 1,0.554 0.554zM14.546,9.901a0.554,0.554 0,0 1,-0.554 0.554H6.987a2.22,2.22 0,0 1,-4.298 0h-1.68a0.554,0.554 0,0 1,0 -1.108h1.68a2.22,2.22 0,0 1,4.298 0h7.005a0.554,0.554 0,0 1,0.554 0.554zM14.546,13.601a0.554,0.554 0,0 1,-0.554 0.555h-1.79a2.22,2.22 0,0 1,-4.298 0H1.008a0.554,0.554 0,0 1,0 -1.109h6.896a2.22,2.22 0,0 1,4.299 0h1.789a0.554,0.554 0,0 1,0.554 0.554zM5.949,9.901a1.11,1.11 0,1 0,-1.111 1.111,1.112 1.112,0 0,0 1.11,-1.11zM11.164,6.201a1.111,1.111 0,1 0,-1.11 1.11,1.112 1.112,0 0,0 1.11,-1.11zM11.164,13.601a1.111,1.111 0,1 0,-1.11 1.111,1.112 1.112,0 0,0 1.11,-1.11z"/>
</svg>
